<mxfile host="app.diagrams.net" agent="Mozilla/5.0 (Windows NT 10.0; Win64; x64) AppleWebKit/537.36 (KHTML, like Gecko) Chrome/133.0.0.0 Safari/537.36" version="26.0.16">
  <diagram name="페이지-1" id="NCgsu8iIg9iRTJlCT1Y8">
    <mxGraphModel dx="285" dy="-72" grid="0" gridSize="10" guides="1" tooltips="1" connect="1" arrows="1" fold="1" page="0" pageScale="1" pageWidth="827" pageHeight="1169" math="0" shadow="0">
      <root>
        <mxCell id="0" />
        <mxCell id="1" parent="0" />
        <mxCell id="rX0uAz9SxRBsIbY8hzxI-5" value="사용자" style="shape=umlActor;verticalLabelPosition=bottom;verticalAlign=top;html=1;outlineConnect=0;" vertex="1" parent="1">
          <mxGeometry x="30" y="675" width="30" height="60" as="geometry" />
        </mxCell>
        <mxCell id="rX0uAz9SxRBsIbY8hzxI-9" value="게시글조회" style="ellipse;whiteSpace=wrap;html=1;" vertex="1" parent="1">
          <mxGeometry x="170" y="660" width="120" height="60" as="geometry" />
        </mxCell>
        <mxCell id="rX0uAz9SxRBsIbY8hzxI-10" value="" style="endArrow=classic;html=1;rounded=0;fontSize=12;startSize=8;endSize=8;curved=1;entryX=0;entryY=0.5;entryDx=0;entryDy=0;" edge="1" parent="1" target="rX0uAz9SxRBsIbY8hzxI-9">
          <mxGeometry width="50" height="50" relative="1" as="geometry">
            <mxPoint x="80" y="690" as="sourcePoint" />
            <mxPoint x="170" y="710" as="targetPoint" />
          </mxGeometry>
        </mxCell>
        <mxCell id="rX0uAz9SxRBsIbY8hzxI-11" value="조회수" style="ellipse;whiteSpace=wrap;html=1;" vertex="1" parent="1">
          <mxGeometry x="416" y="654.5" width="120" height="60" as="geometry" />
        </mxCell>
        <mxCell id="rX0uAz9SxRBsIbY8hzxI-12" value="" style="endArrow=none;dashed=1;html=1;rounded=0;fontSize=12;startSize=8;endSize=8;curved=1;exitX=1;exitY=0.5;exitDx=0;exitDy=0;" edge="1" parent="1">
          <mxGeometry width="50" height="50" relative="1" as="geometry">
            <mxPoint x="314" y="684.38" as="sourcePoint" />
            <mxPoint x="404" y="684.38" as="targetPoint" />
          </mxGeometry>
        </mxCell>
        <mxCell id="rX0uAz9SxRBsIbY8hzxI-13" value="&lt;font style=&quot;font-size: 10px; font-weight: normal;&quot;&gt;&amp;lt;&amp;lt;incloude&amp;gt;&amp;gt;&lt;/font&gt;" style="text;strokeColor=none;fillColor=none;html=1;fontSize=24;fontStyle=1;verticalAlign=middle;align=center;" vertex="1" parent="1">
          <mxGeometry x="314" y="662" width="66" height="17" as="geometry" />
        </mxCell>
        <mxCell id="rX0uAz9SxRBsIbY8hzxI-15" value="" style="endArrow=none;dashed=1;html=1;rounded=0;fontSize=12;startSize=8;endSize=8;curved=1;exitX=1;exitY=0.5;exitDx=0;exitDy=0;" edge="1" parent="1" target="rX0uAz9SxRBsIbY8hzxI-14">
          <mxGeometry width="50" height="50" relative="1" as="geometry">
            <mxPoint x="295" y="684.5" as="sourcePoint" />
            <mxPoint x="378" y="684.5" as="targetPoint" />
          </mxGeometry>
        </mxCell>
        <mxCell id="rX0uAz9SxRBsIbY8hzxI-14" value="" style="triangle;whiteSpace=wrap;html=1;direction=west;" vertex="1" parent="1">
          <mxGeometry x="288" y="677" width="20" height="15" as="geometry" />
        </mxCell>
      </root>
    </mxGraphModel>
  </diagram>
</mxfile>
